<?xml version="1.0" standalone="no"?>
<!DOCTYPE svg PUBLIC "-//W3C//DTD SVG 20010904//EN"
 "http://www.w3.org/TR/2001/REC-SVG-20010904/DTD/svg10.dtd">
<svg version="1.0" xmlns="http://www.w3.org/2000/svg"
 width="225.000000pt" height="225.000000pt" viewBox="0 0 225.000000 225.000000"
 preserveAspectRatio="xMidYMid meet">

<g transform="translate(0.000000,225.000000) scale(0.100000,-0.100000)"
fill="#000000" stroke="none">
<path d="M918 2197 c-327 -89 -551 -347 -599 -690 -21 -150 13 -292 121 -512
124 -253 364 -608 609 -899 l75 -89 29 34 c420 493 687 921 757 1213 81 338
-93 711 -409 875 -128 66 -197 83 -356 87 -123 4 -150 1 -227 -19z m385 -246
c103 -36 175 -81 241 -152 216 -228 219 -567 7 -792 -316 -335 -868 -196 -981
248 -51 199 0 390 143 541 78 82 186 146 290 170 83 18 224 12 300 -15z"/>
<path d="M822 1636 c-81 -26 -117 -79 -109 -160 6 -68 41 -96 154 -128 92 -25
117 -44 93 -73 -20 -24 -105 -14 -161 17 l-41 23 -34 -39 c-19 -22 -34 -43
-34 -47 0 -14 67 -48 125 -64 107 -28 183 -15 243 40 35 32 37 36 37 98 0 85
-21 110 -120 138 -96 28 -135 46 -135 63 0 40 80 43 150 6 l34 -18 33 46 c31
44 32 46 13 59 -62 44 -178 62 -248 39z"/>
<path d="M1170 1401 l0 -241 65 0 65 0 0 70 0 70 68 0 c51 0 79 6 112 23 62
31 83 65 88 140 3 52 0 67 -20 97 -40 60 -84 74 -240 78 l-138 4 0 -241z m248
113 c15 -10 22 -25 22 -49 0 -44 -29 -65 -92 -65 l-48 0 0 65 0 65 48 0 c27 0
57 -7 70 -16z"/>
</g>
</svg>
